<?xml version="1.0" standalone="no"?>
<!DOCTYPE svg PUBLIC "-//W3C//DTD SVG 20010904//EN"
 "http://www.w3.org/TR/2001/REC-SVG-20010904/DTD/svg10.dtd">
<svg version="1.0" xmlns="http://www.w3.org/2000/svg"
 width="512.000000pt" height="512.000000pt" viewBox="0 0 512.000000 512.000000"
 preserveAspectRatio="xMidYMid meet">
<metadata>
Created by potrace 1.14, written by Peter Selinger 2001-2017
</metadata>
<g transform="translate(0.000000,512.000000) scale(0.100000,-0.100000)"
fill="#000000" stroke="none">
<path d="M2198 4854 c-2 -1 -44 -5 -94 -8 -104 -6 -138 -16 -154 -46 -14 -26
-9 -51 29 -133 36 -78 100 -275 150 -462 93 -350 88 -319 88 -485 1 -85 -5
-204 -13 -265 -8 -60 -12 -120 -9 -132 6 -25 9 -25 120 -25 105 0 120 1 140
16 22 16 34 92 24 146 -4 19 -10 59 -13 88 -4 30 -10 73 -15 95 -6 23 -13 62
-16 86 -4 25 -29 135 -57 245 -27 111 -51 208 -53 216 -2 8 -10 42 -18 75 -9
33 -18 76 -21 95 -3 19 -8 46 -11 60 -15 73 -18 109 -19 264 l-1 170 -27 1
c-15 1 -29 1 -30 -1z"/>
<path d="M2974 3706 c-106 -60 -218 -164 -358 -330 -58 -70 -64 -81 -50 -89
10 -6 92 -31 183 -57 91 -26 215 -64 275 -84 60 -19 112 -34 114 -31 3 2 -19
27 -48 54 -51 48 -179 121 -213 121 -41 0 -10 18 71 43 48 14 112 37 142 50
l55 25 -39 7 c-61 12 -212 -1 -316 -28 -73 -19 -89 -21 -70 -8 45 29 185 174
241 251 84 114 85 117 13 76z"/>
<path d="M2177 3233 c-34 -18 -38 -42 -34 -248 3 -161 -4 -353 -17 -457 -38
-307 -74 -494 -127 -665 -18 -56 -29 -108 -26 -117 9 -22 51 -37 112 -40 27
-2 71 -7 96 -11 l47 -7 12 38 c7 21 14 100 16 177 2 124 8 209 18 263 2 11 7
46 10 79 17 151 59 413 87 545 17 80 33 156 35 170 3 14 14 72 25 128 24 120
20 157 -14 146 -35 -12 -107 -12 -163 1 -41 10 -57 9 -77 -2z"/>
<path d="M1682 2223 c11 -84 50 -252 77 -329 l21 -58 -33 30 c-84 78 -197 130
-301 139 -38 3 -36 -6 7 -38 68 -52 226 -160 310 -211 42 -27 80 -53 84 -60 5
-8 3 -8 -8 1 -41 33 -198 67 -304 65 -35 0 -161 -13 -175 -17 -3 -1 -22 -5
-43 -9 -70 -15 -56 -26 63 -51 51 -10 409 -16 450 -7 l35 8 -2 69 c-2 84 -26
205 -60 305 -23 70 -109 230 -123 230 -4 0 -3 -30 2 -67z"/>
<path d="M1956 1631 c-16 -18 -18 -31 -13 -98 4 -43 9 -94 12 -113 13 -77 22
-956 11 -1050 -7 -59 -6 -67 13 -84 17 -16 35 -19 92 -18 38 1 73 4 78 6 4 3
23 1 43 -3 53 -12 69 1 62 52 -3 23 -14 69 -24 102 -10 33 -22 76 -26 95 -4
19 -8 37 -9 40 -1 3 -7 52 -15 110 -22 157 -18 703 5 740 2 3 6 21 9 40 3 19
10 57 15 84 10 55 2 90 -24 100 -10 3 -61 9 -114 12 -89 6 -97 5 -115 -15z"/>
</g>
</svg>
